<svg xmlns="http://www.w3.org/2000/svg" viewBox="120 35 790 470" role="img" aria-labelledby="forward-loop-title forward-loop-desc">
  <title id="forward-loop-title">Career Tracker Forward Loop</title>
  <desc id="forward-loop-desc">Three rising path segments ending in a forward arrow.</desc>
  <path d="M 712.231 51.572 C 708.737 53.313, 705.469 56.141, 702.119 60.322 C 699.396 63.720, 691.298 73.668, 684.124 82.430 C 670.628 98.911, 668.956 102.066, 671.047 107.113 C 673.564 113.191, 670.999 113, 750.200 113.002 C 830.085 113.003, 826.592 112.732, 831.429 119.322 C 833.457 122.085, 833.510 123.424, 834 183.159 L 834.500 244.175 837.306 246.587 C 841.063 249.818, 847.578 249.896, 851.615 246.757 C 862.280 238.465, 884.885 218.102, 886.745 215.110 L 888.990 211.500 888.995 135.710 C 889 63.142, 888.919 59.763, 887.095 56.210 C 883.155 48.535, 888.884 49, 798.292 49 L 717.393 49 712.231 51.572 M 687.393 155.961 C 679.349 159.981, 677.406 162.248, 660.791 187 C 652.853 198.825, 633.847 227.113, 618.556 249.863 C 603.265 272.613, 590.532 292.075, 590.261 293.111 C 589.989 294.148, 590.505 296.122, 591.407 297.498 L 593.046 300 627.863 300 L 662.681 300 668.625 297.030 C 676.370 293.159, 677.974 291.329, 689.240 273.500 C 712.950 235.980, 725.243 217.230, 728.266 213.973 C 734.015 207.780, 737.723 206.636, 754 206.035 C 764.128 205.661, 769.148 205.070, 770.649 204.073 C 774.794 201.319, 799 163.274, 799 159.512 C 799 152.833, 800.410 153, 743.937 153 L 693.319 153 687.393 155.961 M 451.891 241.366 C 441.686 244.140, 438.577 247.670, 421.358 276.033 C 357.360 381.449, 359.496 378.280, 350.345 381.398 C 346.273 382.786, 338.609 383.004, 293.072 383.031 C 238.150 383.063, 230.051 383.512, 220.593 387.051 C 209.974 391.024, 203.865 396.787, 187.781 418 C 179.650 428.725, 166.195 446.451, 157.882 457.390 C 139.198 481.977, 138.369 483.320, 139.854 486.579 C 141.656 490.533, 143.676 490.726, 182 490.610 C 214.687 490.512, 218.833 490.318, 221.686 488.757 C 223.750 487.628, 229.115 481.047, 236.922 470.069 C 248.072 454.388, 252.297 449.734, 257.500 447.398 C 258.600 446.904, 289.425 446.275, 326 446 L 392.500 445.500 397.500 443.032 C 405.758 438.956, 410.636 432.849, 425.920 407.457 C 487.380 305.347, 488.567 303.605, 498.395 301.131 C 501.207 300.423, 513.467 299.999, 531.193 299.996 C 565.812 299.992, 562.473 301.371, 575.288 281.781 C 597.487 247.846, 597.537 247.733, 592.420 242.924 L 589.840 240.500 523.170 240.307 C 472.372 240.160, 455.403 240.412, 451.891 241.366" stroke="none" fill="#08783F" fill-rule="evenodd"/>
</svg>